<svg xmlns="http://www.w3.org/2000/svg" viewBox="0 0 400 400" width="400" height="400" role="img" aria-label="Mrkva">
  <rect width="400" height="400" fill="#F1ECD8"/>
  <g fill="none" stroke="#34492E" stroke-width="4" stroke-linecap="round">
    <path d="M200,130 C190,95 178,70 160,48"/>
    <path d="M200,130 C200,92 200,62 200,38"/>
    <path d="M200,130 C210,95 222,70 240,48"/>
    <path d="M200,130 C182,102 162,86 142,76"/>
    <path d="M200,130 C218,102 238,86 258,76"/>
  </g>
  <path d="M164,130 L236,130 C242,190 228,270 200,352 C172,270 158,190 164,130 Z" fill="#C97C3D" stroke="#2B2116" stroke-width="4" stroke-linejoin="round"/>
  <g stroke="#2B2116" stroke-opacity="0.3" stroke-width="2.5" stroke-linecap="round">
    <path d="M172,168 L228,168"/>
    <path d="M176,204 L224,204"/>
    <path d="M180,240 L220,240"/>
    <path d="M186,276 L214,276"/>
    <path d="M192,312 L208,312"/>
  </g>
</svg>
