<svg xmlns="http://www.w3.org/2000/svg" viewBox="0 0 400 400" width="400" height="400" role="img" aria-label="Crveni luk">
  <rect width="400" height="400" fill="#F1ECD8"/>
  <g fill="none" stroke="#2B2116" stroke-width="3" stroke-linecap="round" stroke-linejoin="round">
    <path d="M200,300 C210,270 216,240 212,215" stroke="#34492E" stroke-width="4"/>
    <path d="M200,300 C195,265 190,235 196,212" stroke="#34492E" stroke-width="4"/>
    <path d="M200,120 C258,120 296,178 288,252 C282,318 244,358 200,358 C156,358 118,318 112,252 C104,178 142,120 200,120 Z" fill="#C97C3D" stroke="#2B2116" stroke-width="4"/>
    <path d="M148,150 C130,190 126,260 150,320" stroke="#2B2116" stroke-opacity="0.35" stroke-width="2.5" fill="none"/>
    <path d="M252,150 C270,190 274,260 250,320" stroke="#2B2116" stroke-opacity="0.35" stroke-width="2.5" fill="none"/>
    <path d="M200,140 C186,190 186,290 200,340" stroke="#2B2116" stroke-opacity="0.25" stroke-width="2" fill="none"/>
    <path d="M182,352 C176,364 172,374 170,384" stroke="#2B2116" stroke-width="2.5"/>
    <path d="M200,356 C200,368 200,378 200,388" stroke="#2B2116" stroke-width="2.5"/>
    <path d="M218,352 C224,364 228,374 230,384" stroke="#2B2116" stroke-width="2.5"/>
  </g>
</svg>
