<svg xmlns="http://www.w3.org/2000/svg" viewBox="0 0 400 400" width="400" height="400" role="img" aria-label="Krumpir">
  <rect width="400" height="400" fill="#F1ECD8"/>
  <path d="M132,210 C120,170 148,132 196,128 C232,124 260,140 282,168 C304,196 300,232 282,258 C296,278 292,306 264,320 C240,332 214,326 190,314 C158,320 128,304 118,272 C108,244 118,224 132,210 Z"
    fill="#2B2116" fill-opacity="0.22" stroke="#2B2116" stroke-width="3.5" stroke-linejoin="round"/>
  <g fill="#2B2116" fill-opacity="0.55">
    <ellipse cx="176" cy="196" rx="5" ry="4"/>
    <ellipse cx="238" cy="176" rx="5" ry="4"/>
    <ellipse cx="216" cy="248" rx="5" ry="4"/>
    <ellipse cx="160" cy="260" rx="4.5" ry="4"/>
    <ellipse cx="260" cy="238" rx="4.5" ry="4"/>
  </g>
</svg>
