<svg xmlns="http://www.w3.org/2000/svg" viewBox="0 0 1600 900" width="1600" height="900" role="img" aria-label="Redovi povrća, ilustracija">
  <rect width="1600" height="900" fill="#34492E"/>
  <circle cx="260" cy="180" r="70" fill="#F1ECD8" fill-opacity="0.08"/>
  <circle cx="260" cy="180" r="70" fill="none" stroke="#F1ECD8" stroke-opacity="0.35" stroke-width="2"/>
  <g stroke="#8FA274" stroke-width="2" stroke-opacity="0.35" fill="none" stroke-linecap="round">
    <line x1="0" y1="300" x2="1600" y2="260"/>
    <line x1="0" y1="420" x2="1600" y2="390"/>
    <line x1="0" y1="560" x2="1600" y2="540"/>
    <line x1="0" y1="720" x2="1600" y2="710"/>
  </g>
  <g stroke="#8FA274" stroke-width="5" stroke-opacity="0.9" fill="none" stroke-linecap="round">
    <path d="M120,360 l14,-34 l14,34 M320,352 l14,-34 l14,34 M520,346 l14,-34 l14,34 M720,342 l14,-34 l14,34
              M920,340 l14,-34 l14,34 M1120,342 l14,-34 l14,34 M1320,346 l14,-34 l14,34 M1500,352 l14,-34 l14,34"/>
  </g>
  <g stroke="#8FA274" stroke-width="6" stroke-opacity="0.95" fill="none" stroke-linecap="round">
    <path d="M80,540 l18,-44 l18,44 M320,532 l18,-44 l18,44 M560,526 l18,-44 l18,44 M800,522 l18,-44 l18,44
              M1040,524 l18,-44 l18,44 M1280,530 l18,-44 l18,44 M1500,538 l18,-44 l18,44"/>
  </g>
  <g stroke="#8FA274" stroke-width="7" stroke-opacity="1" fill="none" stroke-linecap="round">
    <path d="M40,760 l24,-58 l24,58 M340,750 l24,-58 l24,58 M640,744 l24,-58 l24,58 M940,744 l24,-58 l24,58
              M1240,750 l24,-58 l24,58 M1520,760 l24,-58 l24,58"/>
  </g>
</svg>
