<svg xmlns="http://www.w3.org/2000/svg" viewBox="0 0 1600 900" width="1600" height="900" role="img" aria-label="Polje, ilustracija">
  <rect width="1600" height="900" fill="#F1ECD8"/>
  <circle cx="1300" cy="360" r="90" fill="#C97C3D" fill-opacity="0.16"/>
  <circle cx="1300" cy="360" r="90" fill="none" stroke="#C97C3D" stroke-width="2.5"/>
  <g stroke="#2B2116" stroke-width="2" stroke-opacity="0.4" fill="none" stroke-linecap="round">
    <path d="M180,140 q14,-16 28,0 q14,-16 28,0"/>
    <path d="M300,190 q11,-13 22,0 q11,-13 22,0"/>
    <path d="M980,120 q12,-14 24,0 q12,-14 24,0"/>
  </g>
  <path d="M0,500 C 220,468 380,486 560,478 C 760,470 900,494 1100,480 C 1300,468 1440,486 1600,472 L1600,522 L0,522 Z"
    fill="#34492E" fill-opacity="0.5"/>
  <line x1="0" y1="520" x2="1600" y2="520" stroke="#2B2116" stroke-width="2" stroke-opacity="0.4"/>
  <rect x="0" y="520" width="1600" height="380" fill="#34492E"/>
  <g fill="#F1ECD8" stroke="#2B2116" stroke-width="3" stroke-linejoin="round">
    <path d="M120,520 L120,436 L200,378 L280,436 L280,520 Z"/>
    <line x1="200" y1="378" x2="200" y2="336" stroke-width="4"/>
  </g>
  <g stroke="#8FA274" stroke-width="2" stroke-opacity="0.5" fill="none" stroke-linecap="round">
    <line x1="0" y1="565" x2="1600" y2="565"/>
    <line x1="0" y1="618" x2="1600" y2="618"/>
    <line x1="0" y1="678" x2="1600" y2="678"/>
    <line x1="0" y1="745" x2="1600" y2="745"/>
    <line x1="0" y1="820" x2="1600" y2="820"/>
  </g>
  <g stroke="#8FA274" stroke-width="4" stroke-opacity="0.9" fill="none" stroke-linecap="round">
    <path d="M340,600 l9,-22 l9,22 M460,600 l9,-22 l9,22 M580,600 l9,-22 l9,22 M700,600 l9,-22 l9,22
              M820,600 l9,-22 l9,22 M940,600 l9,-22 l9,22 M1060,600 l9,-22 l9,22 M1180,600 l9,-22 l9,22
              M1300,600 l9,-22 l9,22 M1420,600 l9,-22 l9,22"/>
  </g>
  <g stroke="#8FA274" stroke-width="4.5" stroke-opacity="0.95" fill="none" stroke-linecap="round">
    <path d="M220,808 l12,-30 l12,30 M400,808 l12,-30 l12,30 M580,808 l12,-30 l12,30 M760,808 l12,-30 l12,30
              M940,808 l12,-30 l12,30 M1120,808 l12,-30 l12,30 M1300,808 l12,-30 l12,30 M1480,808 l12,-30 l12,30"/>
  </g>
</svg>
